<svg width="64" height="64" viewBox="0 0 64 64" fill="none" xmlns="http://www.w3.org/2000/svg">
<g clip-path="url(#clip0_277_1380)">
<circle cx="32" cy="32" r="32" fill="#333333"/>
<path d="M47.0357 13.2897C42.9357 11.2184 37.9186 10 32.5 10C27.0814 10 22.0643 11.2184 17.9642 13.2897C15.9536 14.3055 14.9482 14.8134 13.9741 16.4103C13 18.0072 13 19.5535 13 22.6459V30.3216C13 42.8251 22.8418 49.7769 28.5415 52.7544C30.1312 53.5849 30.9259 54 32.5 54C34.0741 54 34.8688 53.5849 36.4583 52.7544C42.1581 49.7769 52 42.8251 52 30.3216V22.6459C52 19.5535 52 18.0073 51.0259 16.4103C50.0517 14.8134 49.0464 14.3055 47.0357 13.2897Z" stroke="#FFD700" stroke-width="3" stroke-linecap="round" stroke-linejoin="round"/>
<circle cx="32.5" cy="32.5" r="9" stroke="#FFD700" stroke-width="3"/>
</g>
<defs>
<clipPath id="clip0_277_1380">
<rect width="64" height="64" fill="white"/>
</clipPath>
</defs>
</svg>
